# xmcd
#
# Track frame offsets:
#	150
#	7832
#	20975
#	36842
#	55312
#	70452
#	84695
#	99512
#	113350
#	125857
#	138195
#	157602
#	168117
#	192205
#	203830
#	215147
#	226992
#	241340
#
# Disc length: 3444 seconds
#
# Revision: 1
# Processed by: cddbd v1.4PL0 Copyright (c) Steve Scherf et al.
# Submitted via: MusicWizard 6.0.0
#
DISCID=f00d7212
DTITLE=Carl Perkins - Carl Perkins And Friends
DYEAR=1990
DGENRE=Rockabilly
TTITLE0=Interview
TTITLE1=Boppin' The Blues
TTITLE2=Put Your Cat Clothes On
TTITLE3=Honey Don't
TTITLE4=Matchbox
TTITLE5=Mean Woman Blues
TTITLE6=Turn Around
TTITLE7=Jackson
TTITLE8=What Kind Of Girl
TTITLE9=Everybody's Trying To Be My Baby
TTITLE10=Your True Love
TTITLE11=Les Paul Instrumental
TTITLE12=That's Allright Mama, Medley: Blue Moon Of Kentucky, Night Train ToMemphis, Hey Man
TTITLE13=Glad All Over
TTITLE14=Whole Lotta Shaking Going On
TTITLE15=Gone, Gone, Gone
TTITLE16=Blue Suede Shoes
TTITLE17=Blue Suede Shoes
EXTD=Live Recordings - Quality Records Q 157221\n(taken from the videotape in mono)
EXTT0=
EXTT1=
EXTT2=
EXTT3=
EXTT4=
EXTT5=
EXTT6=
EXTT7=
EXTT8=
EXTT9=
EXTT10=
EXTT11=
EXTT12=
EXTT13=
EXTT14=
EXTT15=
EXTT16=
EXTT17=
PLAYORDER=
